<?xml version="1.0" encoding="UTF-8" standalone="no"?>
<svg
   xmlns:dc="http://purl.org/dc/elements/1.1/"
   xmlns:cc="http://creativecommons.org/ns#"
   xmlns:rdf="http://www.w3.org/1999/02/22-rdf-syntax-ns#"
   xmlns:svg="http://www.w3.org/2000/svg"
   xmlns="http://www.w3.org/2000/svg"
   id="svg29"
   version="1.1"
   height="31"
   width="88">
  <metadata
     id="metadata35">
    <rdf:RDF>
      <cc:Work
         rdf:about="">
        <dc:format>image/svg+xml</dc:format>
        <dc:type
           rdf:resource="http://purl.org/dc/dcmitype/StillImage" />
        <dc:title></dc:title>
      </cc:Work>
    </rdf:RDF>
  </metadata>
  <defs
     id="defs33" />
  <g
     transform="matrix(0.73333342,0,0,0.73809503,9.7714039e-7,-4.4259344e-6)"
     id="g27">
    <title
       id="title2">Layer 1</title>
    <g
       id="layer1">
      <g
         transform="matrix(0.9937808,0,0,0.9936927,-177.69414,-148.87729)"
         id="g325">
        <path
           style="fill:#aab2ab"
           id="path3817_3_"
           d="m 182.23535,150.26416 114.06397,0.20264 c 1.59375,0 3.01757,-0.23633 3.01757,3.18017 l -0.13964,37.5669 H 179.35693 v -37.70606 c 0,-1.68506 0.16309,-3.24365 2.87842,-3.24365 z" />
        <g
           id="g5908_3_"
           transform="matrix(0.872921,0,0,0.872921,50.12536,143.2144)">
          <path
             style="fill:#ffffff"
             id="path5906_3_"
             d="m 187.20946,30.09433 c 0.006,8.680241 -7.02787,15.721531 -15.70809,15.727112 -8.6802,0.005 -15.72204,-7.027863 -15.72709,-15.708071 0,-0.0067 0,-0.01233 0,-0.01904 -0.005,-8.680759 7.02784,-15.72205 15.70808,-15.727079 8.68132,-0.005 15.72206,7.027859 15.7271,15.708069 0,0.0062 0,0.0123 0,0.01901 z" />
          <g
             id="g5706_3_">
            <path
               id="path5708_3_"
               d="m 184.26889,17.292168 c 3.48541,3.485382 5.22839,7.753365 5.22839,12.802155 0,5.049408 -1.71283,9.272026 -5.13836,12.667938 -3.63532,3.576019 -7.93177,5.36377 -12.88944,5.36377 -4.89779,0 -9.11987,-1.77264 -12.66513,-5.31958 -3.54581,-3.545261 -5.31842,-7.78299 -5.31842,-12.712128 0,-4.928566 1.77262,-9.195953 5.31842,-12.802155 3.4552,-3.487091 7.67728,-5.229515 12.66513,-5.229515 5.04825,-1.5e-5 9.314,1.742424 12.79941,5.229515 z m -23.11798,2.344299 c -2.94678,2.976379 -4.41956,6.46344 -4.41956,10.462341 0,3.998352 1.45825,7.455231 4.37421,10.371193 2.91657,2.915947 6.38852,4.374237 10.41705,4.374237 4.02857,0 7.53022,-1.47226 10.5066,-4.41898 2.82586,-2.73587 4.23938,-6.177059 4.23938,-10.32645 0,-4.118042 -1.43647,-7.612946 -4.30768,-10.484161 -2.87061,-2.870667 -6.34986,-4.306549 -10.4383,-4.306549 -4.08837,0 -7.54638,1.443146 -10.3717,4.328369 z m 7.75446,8.703705 c -0.45029,-0.982239 -1.12433,-1.472809 -2.02323,-1.472809 -1.58914,0 -2.38345,1.070068 -2.38345,3.208527 0,2.139557 0.79431,3.209084 2.38345,3.209084 1.04935,0 1.79892,-0.520782 2.24863,-1.564545 l 2.20279,1.172974 c -1.04993,1.865479 -2.62509,2.798489 -4.7255,2.798489 -1.6199,0 -2.91763,-0.4967 -3.89209,-1.489559 -0.97604,-0.993439 -1.4627,-2.362762 -1.4627,-4.108002 0,-1.714996 0.50228,-3.077057 1.5075,-4.085022 1.00516,-1.008537 2.25705,-1.512505 3.75778,-1.512505 2.22013,0 3.80985,0.874268 4.77082,2.622276 z m 10.36334,0 c -0.45087,-0.982239 -1.11145,-1.472809 -1.98236,-1.472809 -1.6211,0 -2.43213,1.070068 -2.43213,3.208527 0,2.139557 0.81103,3.209084 2.43213,3.209084 1.05102,0 1.78717,-0.520782 2.20721,-1.564545 l 2.25201,1.172974 c -1.04821,1.865479 -2.62115,2.798489 -4.71765,2.798489 -1.61773,0 -2.91266,-0.4967 -3.88647,-1.489559 -0.97217,-0.993439 -1.45941,-2.362762 -1.45941,-4.108002 0,-1.714996 0.4945,-3.077057 1.48291,-4.085022 0.98779,-1.008537 2.24524,-1.512505 3.77343,-1.512505 2.21619,0 3.80372,0.874268 4.76136,2.622276 z" />
          </g>
        </g>
        <path
           d="M 297.29639,149.82227 H 181.06738 c -1.24656,0 -2.26121,1.01367 -2.26121,2.26025 v 39.49609 c 0,0.28174 0.22899,0.51026 0.51072,0.51026 h 119.7295 c 0.28173,0 0.51074,-0.22853 0.51074,-0.51026 v -39.49609 c 0,-1.24658 -1.01416,-2.26025 -2.26074,-2.26025 z m -116.22901,1.0205 h 116.22901 c 0.68359,0 1.23925,0.55616 1.23925,1.23975 0,0 0,15.88525 0,27.38135 h -83.07373 c -3.04492,5.50586 -8.91113,9.24365 -15.64355,9.24365 -6.73535,0 -12.6001,-3.73486 -15.64356,-9.24365 h -4.34716 c 0,-11.4961 0,-27.38135 0,-27.38135 0,-0.68359 0.55615,-1.23975 1.23974,-1.23975 z"
           id="path332" />
        <g
           id="g334">
          <path
             style="fill:#ffffff"
             d="m 239.17822,182.77734 c 0.31787,0 0.60743,0.0283 0.86914,0.084 0.26172,0.0557 0.48633,0.14746 0.67383,0.27539 0.18652,0.12696 0.33203,0.29689 0.43457,0.50782 0.10254,0.21191 0.1543,0.47267 0.1543,0.78418 0,0.33593 -0.0762,0.61523 -0.22949,0.83886 -0.15235,0.22463 -0.37891,0.40725 -0.67772,0.55078 0.41211,0.11817 0.71973,0.32522 0.92283,0.6211 0.20313,0.2959 0.30471,0.65234 0.30471,1.06933 0,0.33596 -0.0654,0.62696 -0.19629,0.87307 -0.13088,0.24511 -0.30763,0.44629 -0.52832,0.60154 -0.22168,0.15625 -0.47463,0.27149 -0.75782,0.34571 -0.28418,0.0752 -0.57521,0.1123 -0.875,0.1123 h -3.23632 v -6.66406 h 3.14158 z m -0.18701,2.69532 c 0.26123,0 0.47656,-0.0625 0.64502,-0.18653 0.16797,-0.124 0.25195,-0.32519 0.25195,-0.60447 0,-0.15528 -0.0283,-0.28321 -0.084,-0.38185 -0.0566,-0.0996 -0.13086,-0.17676 -0.22461,-0.2334 -0.0933,-0.0556 -0.20068,-0.0947 -0.32227,-0.11621 -0.12159,-0.0215 -0.24755,-0.0322 -0.37841,-0.0322 h -1.37355 v 1.55469 h 1.48585 z m 0.0855,2.82812 c 0.14355,0 0.28027,-0.0137 0.41162,-0.042 0.13037,-0.0283 0.24658,-0.0752 0.34619,-0.13965 0.0996,-0.0654 0.17871,-0.1543 0.23828,-0.2666 0.0596,-0.11133 0.0889,-0.25488 0.0889,-0.42871 0,-0.3418 -0.0967,-0.58594 -0.29004,-0.73242 -0.19336,-0.14551 -0.44873,-0.21875 -0.7666,-0.21875 h -1.59961 v 1.82812 h 1.57129 z"
             id="path336" />
          <path
             style="fill:#ffffff"
             d="m 241.88916,182.77734 h 1.64355 l 1.56055,2.63184 1.55078,-2.63184 h 1.63379 l -2.47363,4.10645 v 2.55762 h -1.46875 v -2.59473 z"
             id="path338" />
        </g>
        <g
           id="g340">
          <path
             style="fill:#ffffff"
             d="m 265.78076,182.77734 2.78418,4.47071 h 0.0156 v -4.47071 h 1.375 v 6.66407 h -1.46582 l -2.77344,-4.46192 h -0.0186 v 4.46192 h -1.375 v -6.66407 z"
             id="path342" />
          <path
             style="fill:#ffffff"
             d="m 275.51904,184.55273 c -0.0869,-0.14062 -0.19629,-0.26367 -0.32715,-0.36914 -0.13085,-0.10547 -0.27832,-0.18847 -0.44335,-0.24707 -0.16504,-0.0596 -0.3379,-0.0889 -0.51758,-0.0889 -0.33008,0 -0.61035,0.0635 -0.84082,0.1914 -0.23047,0.12695 -0.41699,0.29785 -0.55957,0.5127 -0.14356,0.21484 -0.24805,0.45898 -0.31348,0.73242 -0.0654,0.27344 -0.0976,0.55664 -0.0976,0.84863 0,0.28027 0.0322,0.55274 0.0976,0.81641 0.0654,0.26465 0.16992,0.50293 0.31348,0.71386 0.14258,0.21192 0.3291,0.38086 0.55957,0.50879 0.23047,0.12793 0.51074,0.19143 0.84082,0.19143 0.44726,0 0.79785,-0.13674 1.0498,-0.41114 0.25196,-0.27344 0.40625,-0.63478 0.46189,-1.08301 h 1.41897 c -0.0371,0.41698 -0.13379,0.79395 -0.28906,1.12987 -0.15527,0.33692 -0.36133,0.62306 -0.61621,0.86035 -0.25488,0.23731 -0.55371,0.41797 -0.89649,0.54297 -0.34179,0.125 -0.71875,0.1875 -1.1289,0.1875 -0.51074,0 -0.96973,-0.0889 -1.37793,-0.26658 -0.40723,-0.17678 -0.75195,-0.42189 -1.03223,-0.73242 -0.28125,-0.31153 -0.49609,-0.67774 -0.64551,-1.09768 -0.14941,-0.42089 -0.2246,-0.87304 -0.2246,-1.35937 0,-0.49805 0.0752,-0.95996 0.2246,-1.38672 0.14939,-0.42676 0.36426,-0.79883 0.64551,-1.11621 0.28028,-0.31738 0.625,-0.56641 1.03223,-0.74707 0.4082,-0.18067 0.86719,-0.27051 1.37793,-0.27051 0.36719,0 0.71387,0.0527 1.04101,0.15918 0.32618,0.10547 0.61915,0.25977 0.87696,0.46289 0.25879,0.20215 0.47168,0.45313 0.63965,0.75195 0.16797,0.29883 0.27343,0.64161 0.31738,1.02733 h -1.41895 c -0.0244,-0.16795 -0.0811,-0.32225 -0.16797,-0.4619 z"
             id="path344" />
        </g>
        <g
           id="g6379_1_"
           transform="matrix(1.146822,0,0,1.146822,457.9375,166.153)">
          <path
             style="fill:#ffffff"
             id="path6381_1_"
             d="m -154.14499,-1.09436 c 0.003,4.82693 -3.906,8.74188 -8.73337,8.7457 -4.82652,0.00299 -8.7419,-3.90686 -8.7453,-8.73294 0,-0.0051 0,-0.00894 0,-0.01276 -0.003,-4.82739 3.90601,-8.74234 8.73252,-8.74615 4.82737,-0.00299 8.74276,3.90686 8.74614,8.73294 1e-5,0.00427 1e-5,0.00894 1e-5,0.01321 z" />
          <path
             id="path6383_1_"
             d="m -162.89709,-11.26941 c 2.85182,0 5.26338,0.983521 7.23297,2.95016 1.9696,1.96747 2.95483,4.37604 2.95483,7.22488 0,2.84882 -0.9682,5.23141 -2.90375,7.14822 -2.05475,2.01813 -4.48248,3.02637 -7.28406,3.02637 -2.76834,0 -5.1535,-1.00055 -7.15718,-3.00168 -2.00366,-2.00027 -3.00508,-4.39182 -3.00508,-7.17291 0,-2.78156 1.00141,-5.19012 3.00508,-7.22488 1.95258,-1.96664 4.3386,-2.95016 7.15719,-2.95016 z m -7.87333,7.44116 c -0.30314,0.8588 -0.45471,1.76993 -0.45471,2.73389 0,2.25528 0.82259,4.2049 2.46945,5.85046 1.64688,1.64435 3.60797,2.46735 5.88411,2.46735 2.27533,0 4.2526,-0.83069 5.93353,-2.49332 0.56289,-0.54327 1.02695,-1.13678 1.39057,-1.77969 l -3.83618,-1.70776 c -0.25974,1.2905 -1.4093,2.16205 -2.79987,2.26422 v 1.56897 h -1.1683 V 3.5069 c -1.14193,-0.01276 -2.24552,-0.47983 -3.08853,-1.21811 l 1.40077,-1.41312 c 0.67528,0.63522 1.35054,0.9205 2.27189,0.9205 0.59696,0 1.25859,-0.23376 1.25859,-1.01163 0,-0.27548 -0.1073,-0.46707 -0.27502,-0.61099 l -0.96991,-0.43256 -1.20834,-0.53732 c -0.59693,-0.26654 -1.10274,-0.49094 -1.6111,-0.71744 z m 7.89887,-5.609921 c -2.30937,0 -4.26195,0.813661 -5.85773,2.442201 -0.43513,0.43857 -0.81236,0.89667 -1.13425,1.37439 l 3.89068,1.73203 c 0.35084,-1.07932 1.37609,-1.73416 2.62104,-1.80652 v -1.56897 h 1.16829 v 1.56897 c 0.8047,0.03873 1.68691,0.25928 2.55631,0.93286 l -1.33692,1.37436 c -0.49302,-0.34955 -1.11551,-0.59607 -1.73883,-0.59607 -0.5058,0 -1.2194,0.155 -1.2194,0.78979 0,0.0975 0.0315,0.18268 0.0911,0.25845 l 1.30111,0.57904 0.8805,0.39258 c 0.56286,0.25162 1.10104,0.49005 1.63409,0.72763 l 5.21314,2.32086 c 0.17283,-0.6825 0.25885,-1.40887 0.25885,-2.1778 0,-2.32428 -0.81492,-4.2905 -2.44477,-5.90161 -1.61363,-1.62853 -3.57472,-2.44219 -5.88325,-2.44219 z" />
        </g>
        <g
           id="g349">
          <circle
             style="fill:#ffffff"
             cx="242.56226"
             cy="165.13574"
             r="10.8064"
             id="circle351" />
          <g
             id="g353">
            <path
               d="m 245.68994,162.00928 c 0,-0.41651 -0.33789,-0.75391 -0.75391,-0.75391 h -4.77246 c -0.41603,0 -0.75392,0.3374 -0.75392,0.75391 v 4.77295 h 1.33106 v 5.65187 h 3.61719 v -5.65187 h 1.33203 v -4.77295 z"
               id="path355" />
            <circle
               cx="242.5498"
               cy="158.99463"
               r="1.63232"
               id="circle357" />
          </g>
          <path
             style="clip-rule:evenodd;fill-rule:evenodd"
             d="m 242.53467,153.22949 c -3.23145,0 -5.96826,1.12744 -8.20752,3.38379 -2.29785,2.3335 -3.44629,5.0957 -3.44629,8.28467 0,3.18896 1.14844,5.93164 3.44629,8.22656 2.29785,2.29444 5.03418,3.4419 8.20752,3.4419 3.21289,0 5.99804,-1.15625 8.35351,-3.47119 2.22071,-2.19729 3.3301,-4.92969 3.3301,-8.19729 0,-3.26757 -1.12892,-6.0288 -3.38771,-8.28466 -2.25879,-2.25634 -5.02442,-3.38378 -8.2959,-3.38378 z m 0.0293,2.09961 c 2.64843,0 4.89746,0.93408 6.74707,2.80078 1.87011,1.84766 2.80468,4.10352 2.80468,6.76807 0,2.68359 -0.91504,4.91064 -2.74609,6.68017 -1.92773,1.90625 -4.19629,2.85891 -6.80566,2.85891 -2.60936,0 -4.8584,-0.94336 -6.74659,-2.82959 -1.88964,-1.88674 -2.83349,-4.12307 -2.83349,-6.70948 0,-2.58691 0.9541,-4.84277 2.8623,-6.76808 1.83057,-1.8667 4.07032,-2.80078 6.71778,-2.80078 z"
             id="path359" />
        </g>
      </g>
    </g>
  </g>
</svg>
