<?xml version="1.0" encoding="utf-8"?>
<!-- Generator: Adobe Illustrator 19.1.0, SVG Export Plug-In . SVG Version: 6.00 Build 0)  -->
<svg version="1.1" id="mark" xmlns="http://www.w3.org/2000/svg" xmlns:xlink="http://www.w3.org/1999/xlink" x="0px" y="0px"
	 viewBox="0 0 539.7 523.9" style="enable-background:new 0 0 539.7 523.9;" xml:space="preserve">
<style type="text/css">
	.st0{fill:#4E9D2D;}
</style>
<path class="st0" d="M230.7,255.5c0-102.2,49.9-190.7,198.4-190.7C429.1,167.2,361.7,255.5,230.7,255.5"/>
<path class="st0" d="M468.6,523.9c27.8,0,49.2-4,71.1-12c0-80.9-48.3-138.7-133.5-180.4c-65.2-32.7-145.5-49.7-218.8-49.7
	C219.5,185.4,196.1,65.7,165,0c-34.5,68.8-56,186.8-22.9,282.8C77,287.6,25.4,315.9,3.6,353.3c-1.6,2.8-5,8.9-3,10
	c1.6,0.8,4.1-1.7,5.6-3.1c23.5-21.8,54.6-32.4,84.5-32.4c69.1,0,117.8,57.3,152.3,91.7C317.1,493.5,389.4,524.1,468.6,523.9"/>
</svg>
