<svg  xmlns="http://www.w3.org/2000/svg" xmlns:xlink="http://www.w3.org/1999/xlink" version="1.1" id="full-logo" x="0px" y="0px" viewBox="142.5 210.4 470 174.6" style="enable-background:new 142.5 210.4 470 174.6;" xml:space="preserve">
    <style type="text/css">
        .st0{fill:#4E9D2D;}
        .st1{fill:#FFFFFF;}
        .st2{fill:none;stroke:#FFFFFF;stroke-miterlimit:10;}
    </style>
  <path class="st0" d="M219.5,295.5c0-34.1,16.6-63.6,66.1-63.6C285.6,266.1,263.1,295.5,219.5,295.5"/>
  <path class="st0" d="M298.7,385c9.3,0,16.4-1.3,23.7-4c0-27-16.1-46.2-44.5-60.1c-21.7-10.9-48.5-16.6-72.9-16.6  c10.7-32.2,2.9-72-7.5-93.9c-11.5,22.9-18.7,62.3-7.6,94.3c-21.7,1.6-38.9,11-46.2,23.5c-0.5,0.9-1.7,3-1,3.3c0.5,0.3,1.4-0.6,1.9-1  c7.8-7.3,18.2-10.8,28.2-10.8c23,0,39.3,19.1,50.8,30.6C248.2,374.9,272.4,385,298.7,385"/>
</svg>
